<?xml version="1.0" encoding="UTF-8" standalone="no"?>
<!-- Uploaded to: SVG Repo, www.svgrepo.com, Transformed by: SVG Repo Mixer Tools -->

<svg
   width="800px"
   height="800px"
   viewBox="0 0 24 24"
   fill="none"
   version="1.1"
   id="svg2"
   sodipodi:docname="location_dark.svg"
   inkscape:version="1.3.2 (091e20e, 2023-11-25)"
   xmlns:inkscape="http://www.inkscape.org/namespaces/inkscape"
   xmlns:sodipodi="http://sodipodi.sourceforge.net/DTD/sodipodi-0.dtd"
   xmlns="http://www.w3.org/2000/svg"
   xmlns:svg="http://www.w3.org/2000/svg">
  <defs
     id="defs2" />
  <sodipodi:namedview
     id="namedview2"
     pagecolor="#505050"
     bordercolor="#eeeeee"
     borderopacity="1"
     inkscape:showpageshadow="0"
     inkscape:pageopacity="0"
     inkscape:pagecheckerboard="0"
     inkscape:deskcolor="#505050"
     inkscape:zoom="0.44577968"
     inkscape:cx="438.55745"
     inkscape:cy="347.70539"
     inkscape:window-width="1312"
     inkscape:window-height="449"
     inkscape:window-x="0"
     inkscape:window-y="38"
     inkscape:window-maximized="0"
     inkscape:current-layer="SVGRepo_iconCarrier" />
  <g
     id="SVGRepo_bgCarrier"
     stroke-width="0" />
  <g
     id="SVGRepo_tracerCarrier"
     stroke-linecap="round"
     stroke-linejoin="round" />
  <g
     id="SVGRepo_iconCarrier">
    <g
       opacity="0.4"
       id="g3"
       style="stroke-width:2.31206196;stroke-dasharray:none;opacity:1;stroke:#8c96b4;stroke-opacity:1"
       transform="matrix(0.64877154,0,0,0.64877154,4.2370563,2.5138729)">
      <path
         d="m 9,11 v -1 c 0,-1.66 0.5,-3 3,-3 2.5,0 3,1.34 3,3 v 1"
         stroke="#787878"
         stroke-width="1.5"
         stroke-linecap="round"
         stroke-linejoin="round"
         id="path1-9"
         style="stroke-width:2.31206196;stroke-dasharray:none;stroke:#8c96b4;stroke-opacity:1" />
      <path
         d="m 14.5,17 h -5 C 7.5,17 7,16.5 7,14.5 v -1 C 7,11.5 7.5,11 9.5,11 h 5 c 2,0 2.5,0.5 2.5,2.5 v 1 c 0,2 -0.5,2.5 -2.5,2.5 z"
         stroke="#787878"
         stroke-width="1.5"
         stroke-linecap="round"
         stroke-linejoin="round"
         id="path3-8"
         style="stroke-width:2.31206196;stroke-dasharray:none;stroke:#8c96b4;stroke-opacity:1" />
    </g>
    <path
       d="M3.61971 8.49C5.58971 -0.169998 18.4197 -0.159997 20.3797 8.5C21.5297 13.58 18.3697 17.88 15.5997 20.54C13.5897 22.48 10.4097 22.48 8.38971 20.54C5.62971 17.88 2.46971 13.57 3.61971 8.49Z"
       stroke="#ffffff"
       stroke-width="1.5"
       id="path2" />
  </g>
</svg>
