<?xml version="1.0" encoding="UTF-8" standalone="no"?>
<!-- Uploaded to: SVG Repo, www.svgrepo.com, Transformed by: SVG Repo Mixer Tools -->

<svg
   width="800px"
   height="800px"
   viewBox="0 0 24 24"
   fill="none"
   version="1.1"
   id="svg2"
   sodipodi:docname="location_edit_dark copy 3.svg"
   inkscape:version="1.3.2 (091e20e, 2023-11-25)"
   xmlns:inkscape="http://www.inkscape.org/namespaces/inkscape"
   xmlns:sodipodi="http://sodipodi.sourceforge.net/DTD/sodipodi-0.dtd"
   xmlns="http://www.w3.org/2000/svg"
   xmlns:svg="http://www.w3.org/2000/svg">
  <defs
     id="defs2" />
  <sodipodi:namedview
     id="namedview2"
     pagecolor="#505050"
     bordercolor="#eeeeee"
     borderopacity="1"
     inkscape:showpageshadow="0"
     inkscape:pageopacity="0"
     inkscape:pagecheckerboard="0"
     inkscape:deskcolor="#505050"
     inkscape:zoom="0.17822541"
     inkscape:cx="-157.10442"
     inkscape:cy="510.58937"
     inkscape:window-width="1312"
     inkscape:window-height="449"
     inkscape:window-x="0"
     inkscape:window-y="38"
     inkscape:window-maximized="0"
     inkscape:current-layer="svg2" />
  <g
     id="SVGRepo_bgCarrier"
     stroke-width="0" />
  <g
     id="SVGRepo_tracerCarrier"
     stroke-linecap="round"
     stroke-linejoin="round" />
  <g
     id="SVGRepo_iconCarrier"
     style="stroke-width:1.5;stroke-dasharray:none;stroke:#8c96b4;stroke-opacity:1">
    <path
       id="path2"
       d="M 20.611606 10.198887 C 20.817171 14.535276 18.055199 18.182012 15.5997 20.54 C 13.589702 22.479998 10.409698 22.479998 8.38971 20.54 C 5.6297128 17.880003 2.4697112 13.569995 3.61971 8.49 L 3.61971 8.49 C 4.6147837 4.1157175 8.3806836 1.9534918 12.116946 2.0007581 "
       style="fill:none;stroke:#b4dc8c;stroke-opacity:1;stroke-width:1.5;stroke-dasharray:none;stroke-linecap:round" />
    <g
       id="SVGRepo_iconCarrier-7"
       transform="matrix(0.70767519,0,0,0.70767519,3.9725238,1.399114)"
       style="stroke-width:2.11962;stroke-dasharray:none;stroke:#8c96b4;stroke-opacity:1"
       inkscape:label="edit_pen">
      <path
         d="M 16.0399,3.01976 8.15988,10.8998 c -0.3,0.3 -0.6,0.89 -0.66,1.32 l -0.43,3.01 c -0.16,1.09 0.61,1.85 1.7,1.7 l 3.01002,-0.43 c 0.42,-0.06 1.01,-0.36 1.32,-0.66 l 7.88,-7.88004 c 1.36,-1.36 2,-2.94 0,-4.94 -2,-2 -3.58,-1.36 -4.94,0 z"
         stroke="#8c96b4"
         stroke-width="1.5"
         stroke-miterlimit="10"
         stroke-linecap="round"
         stroke-linejoin="round"
         id="path2-9"
         style="stroke-width:2.11962;stroke-dasharray:none;stroke:#8c96b4;stroke-opacity:1" />
      <path
         opacity="0.4"
         d="m 14.9102,4.1499 c 0.67,2.39 2.54,4.26 4.94,4.94"
         stroke="#8c96b4"
         stroke-width="1.5"
         stroke-miterlimit="10"
         stroke-linecap="round"
         stroke-linejoin="round"
         id="path3"
         style="stroke-width:2.11962;stroke-dasharray:none;stroke:#8c96b4;stroke-opacity:1" />
    </g>
  </g>
</svg>
