<?xml version="1.0" encoding="UTF-8" standalone="no"?>
<!-- Uploaded to: SVG Repo, www.svgrepo.com, Transformed by: SVG Repo Mixer Tools -->

<svg
   width="800px"
   height="800px"
   viewBox="0 0 24 24"
   fill="none"
   version="1.1"
   id="svg4"
   sodipodi:docname="profile_slash_dark copy 2.svg"
   inkscape:version="1.3.2 (091e20e, 2023-11-25)"
   xmlns:inkscape="http://www.inkscape.org/namespaces/inkscape"
   xmlns:sodipodi="http://sodipodi.sourceforge.net/DTD/sodipodi-0.dtd"
   xmlns="http://www.w3.org/2000/svg"
   xmlns:svg="http://www.w3.org/2000/svg">
  <defs
     id="defs4">
    <inkscape:path-effect
       effect="bspline"
       id="path-effect5"
       is_visible="true"
       lpeversion="1.3"
       weight="33.333333"
       steps="2"
       helper_size="0"
       apply_no_weight="true"
       apply_with_weight="true"
       only_selected="false"
       uniform="false" />
  </defs>
  <sodipodi:namedview
     id="namedview4"
     pagecolor="#505050"
     bordercolor="#eeeeee"
     borderopacity="1"
     inkscape:showpageshadow="0"
     inkscape:pageopacity="0"
     inkscape:pagecheckerboard="0"
     inkscape:deskcolor="#505050"
     inkscape:zoom="0.27572707"
     inkscape:cx="103.36308"
     inkscape:cy="386.25152"
     inkscape:window-width="1432"
     inkscape:window-height="732"
     inkscape:window-x="0"
     inkscape:window-y="38"
     inkscape:window-maximized="0"
     inkscape:current-layer="svg4" />
  <g
     id="SVGRepo_bgCarrier"
     stroke-width="0" />
  <g
     id="SVGRepo_tracerCarrier"
     stroke-linecap="round"
     stroke-linejoin="round" />
  <g
     id="SVGRepo_iconCarrier"
     style="stroke:#ff8080;stroke-opacity:1;stroke-width:1.5;stroke-dasharray:none;stroke-linecap:round;fill:none;fill-opacity:1">
    <g
       id="g15"
       inkscape:label="low opacity"
       style="stroke:#ff8080;stroke-opacity:1;stroke-width:1.5;stroke-dasharray:none;stroke-linecap:round;opacity:0.403;fill:none;fill-opacity:1">
      <path
         id="path3"
         style="fill:none;fill-opacity:1;stroke:#ff8080;stroke-width:1.5;stroke-linecap:round;stroke-dasharray:none;stroke-opacity:1"
         d="m 5.870089,21.271062 5.36e-4,1.1e-4 v 0 c 2.6699747,0.934102 6.065907,0.653705 8.300098,-0.841172 2.419995,-1.619996 2.419995,-4.259984 0,-5.86998 -0.319205,-0.213192 -0.663239,-0.400505 -1.024922,-0.564024 l -5.78e-4,-4e-5"
         sodipodi:nodetypes="ccscccc" />
      <path
         opacity="0.4"
         d="M18.3398 20C19.0598 19.85 19.7398 19.56 20.2998 19.13C21.8598 17.96 21.8598 16.03 20.2998 14.86C19.7498 14.44 19.0798 14.16 18.3698 14"
         stroke="#787878"
         stroke-width="1.5"
         stroke-linecap="round"
         stroke-linejoin="round"
         id="path4"
         style="stroke:#ff8080;stroke-opacity:1;stroke-width:1.5;stroke-dasharray:none;stroke-linecap:round;opacity:1;fill:none;fill-opacity:1" />
      <path
         id="path12"
         style="stroke:#ff8080;stroke-opacity:1;stroke-width:1.5;stroke-dasharray:none;stroke-linecap:round;fill:none;fill-opacity:1"
         d="M 19.904566 7.6834988 C 19.812105 9.4714045 18.376373 10.904517 16.591331 10.997669 " />
    </g>
    <path
       d="M9.16055 10.87C9.06055 10.86 8.94055 10.86 8.83055 10.87C6.45055 10.79 4.56055 8.84 4.56055 6.44C4.56055 3.99 6.54055 2 9.00055 2C11.4505 2 13.4405 3.99 13.4405 6.44C13.4305 8.84 11.5405 10.79 9.16055 10.87Z"
       stroke="#787878"
       stroke-width="1.5"
       stroke-linecap="round"
       stroke-linejoin="round"
       id="path1"
       style="stroke:#ff8080;stroke-opacity:1;stroke-width:1.5;stroke-dasharray:none;stroke-linecap:round;fill:none;fill-opacity:1" />
    <path
       id="path10"
       style="stroke:#ff8080;stroke-opacity:1;fill:none;stroke-width:1.5;stroke-dasharray:none;stroke-linecap:round;fill-opacity:1"
       d="M 16.4093 4 C 17.234035 4 17.990095 4.2837439 18.586816 4.7582641 " />
    <path
       id="path14"
       style="stroke:#ff8080;stroke-width:1.5;stroke-linecap:round;stroke-dasharray:none;stroke-opacity:1;fill:none;fill-opacity:1"
       d="m 10.515486,13.446943 c -1.984987,-0.09673 -4.5495571,-0.04748 -6.2424227,1.31536 -1.8368307,1.604832 -2.0144476,3.870157 -0.5635106,5.46331 z"
       sodipodi:nodetypes="cccc" />
    <path
       style="stroke:#ff8080;stroke-opacity:1;stroke-width:1.5;stroke-dasharray:none;stroke-linecap:round;opacity:1;fill:none;fill-opacity:1"
       d="M -6.5084745,12.813559 C -0.54237294,6.8474576 5.4237289,0.88135601 11.389831,-5.0847459"
       id="path5"
       transform="matrix(1.1415465,0,0,1.1415465,9.2128356,7.5377526)"
       inkscape:original-d="M -6.5084745,12.813559 C -0.54237288,6.8474577 5.4237288,0.88135593 11.389831,-5.0847459"
       inkscape:path-effect="#path-effect5" />
  </g>
</svg>
