<!DOCTYPE svg PUBLIC "-//W3C//DTD SVG 1.1//EN" "http://www.w3.org/Graphics/SVG/1.1/DTD/svg11.dtd">
<!-- Uploaded to: SVG Repo, www.svgrepo.com, Transformed by: SVG Repo Mixer Tools -->
<svg width="800px" height="800px" viewBox="0 0 24 24" fill="none" xmlns="http://www.w3.org/2000/svg">
<g id="SVGRepo_bgCarrier" stroke-width="0"/>
<g id="SVGRepo_tracerCarrier" stroke-linecap="round" stroke-linejoin="round"/>
<g id="SVGRepo_iconCarrier"> <path d="M9 22H15C20 22 22 20 22 15V9C22 4 20 2 15 2H9C4 2 2 4 2 9V15C2 20 4 22 9 22Z" stroke="#ffffff" stroke-width="1.5" stroke-linecap="round" stroke-linejoin="round"/> <path opacity="0.4" d="M17.5 12C17.5 15.04 15.04 17.5 12 17.5C8.96 17.5 7.10999 14.44 7.10999 14.44M7.10999 14.44H9.59M7.10999 14.44V17.19M6.5 12C6.5 8.96 8.94 6.5 12 6.5C15.67 6.5 17.5 9.56 17.5 9.56M17.5 9.56V6.81M17.5 9.56H15.06" stroke="#ffffff" stroke-width="1.5" stroke-linecap="round" stroke-linejoin="round"/> </g>
</svg>