<?xml version="1.0" encoding="UTF-8" standalone="no"?>
<!-- Uploaded to: SVG Repo, www.svgrepo.com, Transformed by: SVG Repo Mixer Tools -->

<svg
   width="800px"
   height="800px"
   viewBox="0 0 24 24"
   fill="none"
   version="1.1"
   id="svg2"
   sodipodi:docname="toggle_off_dark.svg"
   inkscape:version="1.3.2 (091e20e, 2023-11-25)"
   xmlns:inkscape="http://www.inkscape.org/namespaces/inkscape"
   xmlns:sodipodi="http://sodipodi.sourceforge.net/DTD/sodipodi-0.dtd"
   xmlns="http://www.w3.org/2000/svg"
   xmlns:svg="http://www.w3.org/2000/svg">
  <defs
     id="defs2" />
  <sodipodi:namedview
     id="namedview2"
     pagecolor="#505050"
     bordercolor="#eeeeee"
     borderopacity="1"
     inkscape:showpageshadow="0"
     inkscape:pageopacity="0"
     inkscape:pagecheckerboard="0"
     inkscape:deskcolor="#505050"
     inkscape:zoom="0.295"
     inkscape:cx="5.0847458"
     inkscape:cy="427.11864"
     inkscape:window-width="1312"
     inkscape:window-height="449"
     inkscape:window-x="0"
     inkscape:window-y="38"
     inkscape:window-maximized="0"
     inkscape:current-layer="SVGRepo_iconCarrier" />
  <g
     id="SVGRepo_bgCarrier"
     stroke-width="0" />
  <g
     id="SVGRepo_tracerCarrier"
     stroke-linecap="round"
     stroke-linejoin="round" />
  <g
     id="SVGRepo_iconCarrier">
    <path
       d="M17 20H7C3 20 2 19 2 15V9C2 5 3 4 7 4H17C21 4 22 5 22 9V15C22 19 21 20 17 20Z"
       stroke="#ffffff"
       stroke-width="1.5"
       stroke-linecap="round"
       stroke-linejoin="round"
       id="path2"
       style="fill:#787878;fill-opacity:0.5" />
    <path
       opacity="0.4"
       d="M8.3 16H10.7C12.7 16 13.5 15.2 13.5 13.2V10.8C13.5 8.8 12.7 8 10.7 8H8.3C6.3 8 5.5 8.8 5.5 10.8V13.2C5.5 15.2 6.3 16 8.3 16Z"
       stroke="#ffffff"
       stroke-width="1.5"
       stroke-linecap="round"
       stroke-linejoin="round"
       id="path1"
       style="fill:#ff0000;fill-opacity:0.69915253;opacity:1;stroke:#c8c8c8;stroke-opacity:1" />
  </g>
</svg>
